<svg xmlns="http://www.w3.org/2000/svg" width="148.187" height="35.64" viewBox="0 0 148.187 35.64">
  <g id="Grupo_17121" data-name="Grupo 17121" transform="translate(-117 -233)">
    <g id="Grupo_2799" data-name="Grupo 2799" transform="translate(162.434 233)">
      <path id="Trazado_9855" data-name="Trazado 9855" d="M1020.151,286.277h-6.774a.65.65,0,0,1-.65-.65v-24.02a.65.65,0,0,1,.65-.65h6.59a.65.65,0,0,1,.65.65v2.882a7.468,7.468,0,0,1,3.119-3.027,9.783,9.783,0,0,1,4.817-1.192,9.677,9.677,0,0,1,6.927,2.706q2.844,2.707,2.844,7.752v14.9a.65.65,0,0,1-.65.65h-6.82a.65.65,0,0,1-.65-.65V272.884a5.7,5.7,0,0,0-1.193-3.853,4.086,4.086,0,0,0-3.257-1.376,4.647,4.647,0,0,0-3.578,1.491,5.62,5.62,0,0,0-1.376,3.968v12.515A.65.65,0,0,1,1020.151,286.277Z" transform="translate(-1012.727 -252.291)"/>
      <path id="Trazado_9856" data-name="Trazado 9856" d="M1202.1,286.774a15.8,15.8,0,0,1-10.825-3.981.647.647,0,0,1-.1-.841l2.914-4.389a.647.647,0,0,1,.943-.15,11.1,11.1,0,0,0,7.027,2.711q2.706,0,2.707-1.605,0-.871-1.376-1.422a.732.732,0,0,1-.184-.046c-.092-.03-.214-.069-.367-.115s-.336-.107-.55-.184-.467-.161-.757-.252-.6-.2-.941-.321q-2.936-1.054-3.486-1.284-4.726-2.2-4.725-6.88a6.959,6.959,0,0,1,2.844-5.779,11.825,11.825,0,0,1,7.614-2.248,14.579,14.579,0,0,1,8.958,2.921.654.654,0,0,1,.163.883l-2.8,4.28a.647.647,0,0,1-.881.2,10.622,10.622,0,0,0-5.574-1.815,3.029,3.029,0,0,0-1.628.413,1.188,1.188,0,0,0-.665,1.009q0,1.193,2.294,1.835a32.05,32.05,0,0,1,5.963,2.2q4.311,2.111,4.313,6.422a7.515,7.515,0,0,1-2.936,6.1A12.389,12.389,0,0,1,1202.1,286.774Z" transform="translate(-1133.109 -252.1)"/>
      <path id="Trazado_9858" data-name="Trazado 9858" d="M1285.9,262.518l1.75,5.25a.645.645,0,0,1-.3.774,15.846,15.846,0,0,1-7.6,1.8q-9.4,0-9.4-10.458v-8.807h-1.865a.65.65,0,0,1-.65-.65v-5.4a.65.65,0,0,1,.65-.65h1.957v-5.217a.65.65,0,0,1,.4-.6l6.728-2.8a.65.65,0,0,1,.9.6v8.016h7.286a.65.65,0,0,1,.65.65v5.4a.65.65,0,0,1-.65.65h-7.286v7.844q0,4.037,3.211,4.036a8.017,8.017,0,0,0,3.336-.821A.65.65,0,0,1,1285.9,262.518Z" transform="translate(-1184.931 -235.715)"/>
      <path id="Trazado_9859" data-name="Trazado 9859" d="M1129.442,273.07a19.866,19.866,0,0,1-.192,2.7.649.649,0,0,1-.644.556h-17.512q1.376,3.99,6.193,3.991a13.417,13.417,0,0,0,7.109-1.987.646.646,0,0,1,.891.234l2.524,4.353a.647.647,0,0,1-.192.862,18.763,18.763,0,0,1-10.7,3.144q-6.7,0-10.367-3.807a13.113,13.113,0,0,1-3.624-9.4,12.869,12.869,0,0,1,3.762-9.495,14.455,14.455,0,0,1,19.082-.413A12,12,0,0,1,1129.442,273.07Zm-12.982-6.192a5.243,5.243,0,0,0-5.459,3.9h10.734a5.175,5.175,0,0,0-1.881-2.867A5.5,5.5,0,0,0,1116.46,266.878Z" transform="translate(-1073.616 -252.386)"/>
    </g>
    <g id="Grupo_2798" data-name="Grupo 2798" transform="translate(117 233)">
      <path id="Trazado_9854" data-name="Trazado 9854" d="M892.128,244.086v-11a.65.65,0,0,1,.65-.65H899.6a.65.65,0,0,1,.65.65v33.7a.65.65,0,0,1-.65.65h-6.59a.65.65,0,0,1-.65-.65v-1.552a9.591,9.591,0,0,1-7.064,2.844,11.544,11.544,0,0,1-8.853-3.762,14.588,14.588,0,0,1,0-19.036,11.662,11.662,0,0,1,8.853-3.807A9.54,9.54,0,0,1,892.128,244.086Zm-5.458,16.6a5.487,5.487,0,0,0,4.128-1.72,5.89,5.89,0,0,0,1.651-4.243,5.754,5.754,0,0,0-1.651-4.174,5.524,5.524,0,0,0-4.128-1.7,5.452,5.452,0,0,0-4.129,1.743,5.7,5.7,0,0,0-1.651,4.128,5.969,5.969,0,0,0,1.651,4.266A5.523,5.523,0,0,0,886.67,260.69Z" transform="translate(-872.908 -232.435)"/>
      <path id="Trazado_9857" data-name="Trazado 9857" d="M974.765,320.819a4.57,4.57,0,0,0,3.438-1.432,4.906,4.906,0,0,0,1.375-3.534,4.793,4.793,0,0,0-1.375-3.477,4.6,4.6,0,0,0-3.438-1.413,4.539,4.539,0,0,0-3.438,1.452,4.747,4.747,0,0,0-1.376,3.438,4.972,4.972,0,0,0,1.376,3.553A4.6,4.6,0,0,0,974.765,320.819Z" transform="translate(-938.416 -285.446)" fill="#3958ff"/>
    </g>
  </g>
</svg>
