<?xml version="1.0" encoding="UTF-8"?>
<svg id="Layer_1" data-name="Layer 1" xmlns="http://www.w3.org/2000/svg" viewBox="0 0 20.53 30.77">
  <defs>
    <style>
      .cls-1 {
        fill: #ff818a;
      }

      .cls-2 {
        fill: #324f7b;
      }
    </style>
  </defs>
  <path id="Trazado_45977" data-name="Trazado 45977" class="cls-2" d="M10.26,10.24C4.59,10.24,0,14.83,0,20.5c0,5.67,4.6,10.26,10.27,10.26,5.67,0,10.26-4.6,10.26-10.26s-4.6-10.26-10.27-10.26h0m0,16.01c-3.17,0-5.74-2.57-5.74-5.74,0-3.17,2.57-5.74,5.74-5.74,3.17,0,5.74,2.57,5.74,5.74,0,0,0,0,0,0h0c-.03,3.16-2.58,5.71-5.74,5.74"/>
  <path id="Sustracción_32" data-name="Sustracción 32" class="cls-1" d="M4.71,8.77H.1C.93,3.16,6.15-.72,11.76,.11c4.48,.66,7.99,4.18,8.65,8.65h-4.6c-.81-3.07-3.95-4.9-7.01-4.09-2,.53-3.57,2.09-4.09,4.09h0Z"/>
</svg>