<?xml version="1.0" encoding="UTF-8" standalone="no"?>
<!DOCTYPE svg PUBLIC "-//W3C//DTD SVG 1.1//EN" "http://www.w3.org/Graphics/SVG/1.1/DTD/svg11.dtd">
<svg width="100%" height="100%" viewBox="0 0 43 13" version="1.1" xmlns="http://www.w3.org/2000/svg" xmlns:xlink="http://www.w3.org/1999/xlink" xml:space="preserve" xmlns:serif="http://www.serif.com/" style="fill-rule:evenodd;clip-rule:evenodd;">
    <g transform="matrix(4.16667,0,0,4.16667,-200.737,-67.2585)">
        <g transform="matrix(0.0669079,0,0,0.0669079,24.1732,-16.0788)">
            <g id="Grupo_14980">
                <g>
                    <g id="Grupo_14978" transform="matrix(1,0,0,1,360.717,493.867)">
                        <g id="Grupo_14974">
                            <g id="Rect치ngulo_12588-3" transform="matrix(1,0,0,1,98.504,0.256)">
                                <rect x="0" y="0" width="4.525" height="20.096" style="fill:white;"/>
                            </g>
                            <g id="Rect치ngulo_12589" transform="matrix(1,0,0,1,68.878,0.256)">
                                <rect x="0" y="0" width="4.525" height="20.096" style="fill:white;"/>
                            </g>
                            <g id="Trazado_45977" transform="matrix(1,0,0,1,0,-24.562)">
                                <path d="M10.264,24.562C4.633,24.563 -0,29.196 0,34.827C0,40.458 4.634,45.092 10.265,45.092C15.896,45.092 20.53,40.458 20.53,34.827C20.53,29.196 15.896,24.562 10.265,24.562C10.265,24.562 10.264,24.562 10.264,24.562M10.264,40.567C10.263,40.567 10.261,40.567 10.26,40.567C7.111,40.567 4.52,37.976 4.52,34.827C4.52,31.678 7.111,29.087 10.26,29.087C13.408,29.087 15.999,31.678 16,34.826C15.968,37.963 13.398,40.534 10.261,40.567" style="fill:white;fill-rule:nonzero;"/>
                            </g>
                            <g id="Trazado_45978" transform="matrix(1,0,0,1,-132.259,-25.003)">
                                <path d="M222.825,25.259L218.254,38.148L218.254,38.158L213.683,25.269L209.132,25.269L216.332,45.369L218.251,45.369L218.251,45.359L220.17,45.359L227.37,25.259L222.825,25.259Z" style="fill:white;fill-rule:nonzero;"/>
                            </g>
                            <g id="Trazado_45981" transform="matrix(1,0,0,1,-267.588,-24.655)">
                                <path d="M300.361,24.655C295.58,24.654 291.644,28.587 291.641,33.368L291.641,44.973L296.165,44.973L296.165,33.257C296.195,31.028 298.02,29.203 300.249,29.173L300.471,29.173C300.533,29.17 300.594,29.169 300.656,29.169C302.76,29.169 304.503,30.87 304.555,32.973L304.555,44.973L309.08,44.973L309.08,33.368C309.077,28.587 305.142,24.655 300.361,24.655" style="fill:white;fill-rule:nonzero;"/>
                            </g>
                            <g id="Trazado_45982" transform="matrix(1,0,0,1,-183.628,-24.655)">
                                <path d="M300.361,24.655C295.58,24.654 291.644,28.587 291.641,33.368L291.641,44.973L296.165,44.973L296.165,33.257C296.195,31.028 298.02,29.203 300.249,29.173L300.471,29.173C300.533,29.17 300.594,29.169 300.656,29.169C302.76,29.169 304.503,30.87 304.555,32.973L304.555,44.973L309.08,44.973L309.08,33.368C309.077,28.587 305.142,24.655 300.361,24.655" style="fill:white;fill-rule:nonzero;"/>
                            </g>
                            <g id="Grupo_14972" transform="matrix(1,0,0,1,44.877,0)">
                                <g id="Grupo_14972-2">
                                    <path id="Trazado_45978-2" d="M20.53,8.434L11.589,8.434L11.589,12.094L15.68,12.094C14.885,14.405 12.708,15.975 10.264,16C10.263,16 10.262,16 10.261,16C7.112,16 4.521,13.409 4.521,10.26C4.521,7.111 7.112,4.52 10.261,4.52C11.95,4.52 13.556,5.266 14.646,6.556L17.854,3.348C15.911,1.212 13.153,-0.005 10.266,0C10.266,-0 10.265,-0 10.265,-0C4.634,-0 -0,4.634 0,10.265C0,15.896 4.634,20.53 10.265,20.53C15.896,20.53 20.53,15.896 20.53,10.265L20.53,8.434" style="fill:white;fill-rule:nonzero;"/>
                                </g>
                            </g>
                            <g id="Grupo_14973" transform="matrix(1,0,0,1,128.183,0)">
                                <g id="Grupo_14972-3">
                                    <path id="Trazado_45978-3" d="M20.53,8.434L11.589,8.434L11.589,12.094L15.68,12.094C14.885,14.405 12.708,15.975 10.264,16C10.263,16 10.262,16 10.261,16C7.112,16 4.521,13.409 4.521,10.26C4.521,7.111 7.112,4.52 10.261,4.52C11.95,4.52 13.556,5.266 14.646,6.556L17.854,3.348C15.911,1.212 13.153,-0.005 10.266,0C10.266,-0 10.265,-0 10.265,-0C4.634,-0 -0,4.634 0,10.265C0,15.896 4.634,20.53 10.265,20.53C15.896,20.53 20.53,15.896 20.53,10.265L20.53,8.434" style="fill:white;fill-rule:nonzero;"/>
                                </g>
                            </g>
                        </g>
                    </g>
                    <g id="Sustracci칩n_32" transform="matrix(1,0,0,1,360.819,483.591)">
                        <path d="M4.608,8.805L0,8.805C0.741,3.792 5.089,0.04 10.156,0.04C15.224,0.04 19.572,3.792 20.313,8.805L15.713,8.805C15.051,6.29 12.76,4.524 10.16,4.524C7.56,4.524 5.269,6.29 4.607,8.805L4.608,8.805Z" style="fill:rgb(255,129,138);fill-rule:nonzero;stroke:black;stroke-opacity:0;stroke-width:1px;"/>
                    </g>
                    <g id="Sustracci칩n_33" transform="matrix(-1,-7.65714e-16,7.65714e-16,-1,509.326,524.673)">
                        <path d="M4.607,8.806L0,8.806C0.74,3.792 5.088,0.039 10.156,0.039C15.224,0.039 19.572,3.792 20.312,8.806L15.712,8.806C15.051,6.293 12.761,4.527 10.162,4.527C7.562,4.526 5.27,6.291 4.607,8.805L4.607,8.806Z" style="fill:rgb(55,201,161);fill-rule:nonzero;stroke:black;stroke-opacity:0;stroke-width:1px;"/>
                    </g>
                </g>
            </g>
        </g>
    </g>
</svg>
