<svg xmlns="http://www.w3.org/2000/svg" xmlns:xlink="http://www.w3.org/1999/xlink" width="149.659" height="42.082" viewBox="0 0 149.659 42.082">
  <defs>
    <clipPath id="clip-path">
      <rect id="Rectángulo_12588" data-name="Rectángulo 12588" width="20.53" height="20.53" fill="#324f7b"/>
    </clipPath>
  </defs>
  <g id="Grupo_14980" data-name="Grupo 14980" transform="translate(-360.244 -483.091)">
    <g id="Grupo_14978" data-name="Grupo 14978" transform="translate(360.717 493.867)">
      <g id="Grupo_14974" data-name="Grupo 14974" transform="translate(0 0)">
        <rect id="Rectángulo_12588-3" data-name="Rectángulo 12588" width="4.525" height="20.096" transform="translate(98.504 0.256)" fill="#324f7b"/>
        <rect id="Rectángulo_12589" data-name="Rectángulo 12589" width="4.525" height="20.096" transform="translate(68.878 0.256)" fill="#324f7b"/>
        <path id="Trazado_45977" data-name="Trazado 45977" d="M10.264,24.562A10.265,10.265,0,1,0,20.53,34.827,10.265,10.265,0,0,0,10.264,24.562m0,16.005A5.74,5.74,0,1,1,16,34.826h0a5.8,5.8,0,0,1-5.739,5.741" transform="translate(0 -24.562)" fill="#324f7b"/>
        <path id="Trazado_45978" data-name="Trazado 45978" d="M222.825,25.259l-4.571,12.889v.01l-4.571-12.889h-4.551l7.2,20.1h1.919v-.01h1.919l7.2-20.1Z" transform="translate(-132.259 -25.003)" fill="#324f7b"/>
        <path id="Trazado_45981" data-name="Trazado 45981" d="M300.361,24.655a8.719,8.719,0,0,0-8.72,8.713V44.973h4.524V33.257a4.14,4.14,0,0,1,4.084-4.084c.038,0,.074,0,.111,0s.073,0,.111,0a3.9,3.9,0,0,1,4.084,3.8v12h4.525V33.368a8.719,8.719,0,0,0-8.719-8.713" transform="translate(-267.588 -24.655)" fill="#324f7b"/>
        <path id="Trazado_45982" data-name="Trazado 45982" d="M300.361,24.655a8.719,8.719,0,0,0-8.72,8.713V44.973h4.524V33.257a4.14,4.14,0,0,1,4.084-4.084c.038,0,.074,0,.111,0s.073,0,.111,0a3.9,3.9,0,0,1,4.084,3.8v12h4.525V33.368a8.719,8.719,0,0,0-8.719-8.713" transform="translate(-183.628 -24.655)" fill="#324f7b"/>
        <g id="Grupo_14972" data-name="Grupo 14972" transform="translate(44.877 0)">
          <g id="Grupo_14972-2" data-name="Grupo 14972" transform="translate(0 0)" clip-path="url(#clip-path)">
            <path id="Trazado_45978-2" data-name="Trazado 45978" d="M20.53,8.434H11.589v3.66H15.68A5.789,5.789,0,0,1,10.264,16h0a5.74,5.74,0,1,1,4.382-9.444l3.208-3.208A10.236,10.236,0,0,0,10.266,0h0A10.265,10.265,0,1,0,20.53,10.265c0-.614,0-1.1,0-1.831" transform="translate(0 0)" fill="#324f7b"/>
          </g>
        </g>
        <g id="Grupo_14973" data-name="Grupo 14973" transform="translate(128.183 0)">
          <g id="Grupo_14972-3" data-name="Grupo 14972" transform="translate(0 0)" clip-path="url(#clip-path)">
            <path id="Trazado_45978-3" data-name="Trazado 45978" d="M20.53,8.434H11.589v3.66H15.68A5.789,5.789,0,0,1,10.264,16h0a5.74,5.74,0,1,1,4.382-9.444l3.208-3.208A10.236,10.236,0,0,0,10.266,0h0A10.265,10.265,0,1,0,20.53,10.265c0-.614,0-1.1,0-1.831" transform="translate(0 0)" fill="#324f7b"/>
          </g>
        </g>
      </g>
    </g>
    <path id="Sustracción_32" data-name="Sustracción 32" d="M4.608,8.805H0a10.267,10.267,0,0,1,20.313,0h-4.6a5.742,5.742,0,0,0-11.106,0Z" transform="translate(360.819 483.591)" fill="#ff818a" stroke="rgba(0,0,0,0)" stroke-width="1"/>
    <path id="Sustracción_33" data-name="Sustracción 33" d="M4.607,8.806H0a10.266,10.266,0,0,1,20.312,0h-4.6a5.74,5.74,0,0,0-5.55-4.279h0A5.743,5.743,0,0,0,4.607,8.805Z" transform="translate(509.326 524.673) rotate(180)" fill="#37c9a1" stroke="rgba(0,0,0,0)" stroke-width="1"/>
  </g>
</svg>
