<svg id="Grupo_2798" data-name="Grupo 2798" xmlns="http://www.w3.org/2000/svg" width="41.163" height="35.64" viewBox="0 0 41.163 35.64">
  <path id="Trazado_9854" data-name="Trazado 9854" d="M892.128,244.086v-11a.65.65,0,0,1,.65-.65H899.6a.65.65,0,0,1,.65.65v33.7a.65.65,0,0,1-.65.65h-6.59a.65.65,0,0,1-.65-.65v-1.552a9.591,9.591,0,0,1-7.064,2.844,11.544,11.544,0,0,1-8.853-3.762,14.588,14.588,0,0,1,0-19.036,11.662,11.662,0,0,1,8.853-3.807A9.54,9.54,0,0,1,892.128,244.086Zm-5.458,16.6a5.487,5.487,0,0,0,4.128-1.72,5.89,5.89,0,0,0,1.651-4.243,5.754,5.754,0,0,0-1.651-4.174,5.524,5.524,0,0,0-4.128-1.7,5.452,5.452,0,0,0-4.129,1.743,5.7,5.7,0,0,0-1.651,4.128,5.969,5.969,0,0,0,1.651,4.266A5.523,5.523,0,0,0,886.67,260.69Z" transform="translate(-872.908 -232.435)"/>
  <path id="Trazado_9857" data-name="Trazado 9857" d="M974.765,320.819a4.57,4.57,0,0,0,3.438-1.432,4.906,4.906,0,0,0,1.375-3.534,4.793,4.793,0,0,0-1.375-3.477,4.6,4.6,0,0,0-3.438-1.413,4.539,4.539,0,0,0-3.438,1.452,4.747,4.747,0,0,0-1.376,3.438,4.972,4.972,0,0,0,1.376,3.553A4.6,4.6,0,0,0,974.765,320.819Z" transform="translate(-938.416 -285.446)" fill="#3958ff"/>
</svg>
