<svg xmlns="http://www.w3.org/2000/svg" width="14.697" height="12.853" viewBox="0 0 14.697 12.853">
  <path id="Trazado_27603" data-name="Trazado 27603" d="M546.346,516.584a4.992,4.992,0,0,1-1.68.513,3.437,3.437,0,0,0,1.264-1.776,4.706,4.706,0,0,1-1.9.721h0a2.915,2.915,0,0,0-2.193-1.011,3.158,3.158,0,0,0-3.033,3.263,3.892,3.892,0,0,0,.074.729h0a8.495,8.495,0,0,1-6.423-3.39,3.4,3.4,0,0,0,.922,4.312,1.865,1.865,0,0,1-1.323-.364,3.12,3.12,0,0,0,2.342,3.189,2.224,2.224,0,0,1-1.264.1,2.921,2.921,0,0,0,2.714,2.215,4.767,4.767,0,0,1-4.2,1.353,8.627,8.627,0,0,0,4.743,1.442c4.891,0,8.69-4.267,8.489-9.538v-.111A5.2,5.2,0,0,0,546.346,516.584Z" transform="translate(-531.65 -515.03)" fill="#fff"/>
</svg>
